<?xml version="1.0" standalone="no"?><!DOCTYPE svg PUBLIC "-//W3C//DTD SVG 1.1//EN" "http://www.w3.org/Graphics/SVG/1.1/DTD/svg11.dtd"><svg t="1738250326152" class="icon" viewBox="0 0 1024 1024" version="1.1" xmlns="http://www.w3.org/2000/svg" p-id="8611" xmlns:xlink="http://www.w3.org/1999/xlink" width="24" height="24"><path d="M509.088 887.264a404.368 404.368 0 1 0 0-808.72 404.368 404.368 0 0 0 0 808.72z" fill="#FFD21E" p-id="8612"></path><path d="M913.44 482.896a404.352 404.352 0 1 0-808.704 0 404.352 404.352 0 0 0 808.704 0z m-855.248 0a450.896 450.896 0 1 1 901.792 0 450.896 450.896 0 0 1-901.792 0z" fill="#FF9D0B" p-id="8613"></path><path d="M640.464 372.944c14.88 5.12 20.704 35.6 35.728 27.68a58.176 58.176 0 1 0-78.672-24.08c7.104 13.392 29.68-8.368 43.056-3.712l-0.112 0.112z m-274.032 0c-14.88 5.12-20.832 35.6-35.728 27.68a58.16 58.16 0 1 1 78.672-24.08c-7.104 13.392-29.792-8.368-43.056-3.712l0.112 0.112z" fill="#3A3B45" p-id="8614"></path><path d="M506.176 652.096c114.4 0 151.28-101.936 151.28-154.304 0-27.216-18.272-18.608-47.6-4.192-27.104 13.392-63.52 31.888-103.552 31.888-83.68 0-151.28-80.048-151.28-27.68 0 52.352 36.768 154.288 151.28 154.288h-0.128z" fill="#FF323D" p-id="8615"></path><path d="M418.56 625.44a101.28 101.28 0 0 1 61.68-52.24c4.64-1.392 9.424 6.624 14.416 14.88 4.656 7.92 9.552 15.952 14.432 15.952 5.232 0 10.48-7.904 15.472-15.712 5.248-8.144 10.368-16.048 15.36-14.544a100.192 100.192 0 0 1 58.192 48.528c43.392-34.208 59.344-90.08 59.344-124.512 0-27.216-18.272-18.608-47.6-4.192l-1.632 0.816c-26.88 13.392-62.72 31.072-102.048 31.072s-75.04-17.68-102.048-31.072c-30.24-15.008-49.216-24.432-49.216 3.376 0 35.488 16.992 93.792 63.648 127.648z" fill="#3A3B45" p-id="8616"></path><path d="M782.544 427.632a37.824 37.824 0 1 0 0-75.632 37.824 37.824 0 0 0 0 75.632z m-541.088 0a37.824 37.824 0 1 0 0-75.632 37.824 37.824 0 0 0 0 75.632z m-77.84 128c-18.848 0-35.616 7.68-47.36 21.76a69.472 69.472 0 0 0-15.472 43.744 82.656 82.656 0 0 0-22.576-3.488c-18.048 0-34.336 6.88-45.856 19.312a67.488 67.488 0 0 0-9.296 81.456 61.68 61.68 0 0 0-20.832 32.816 68.032 68.032 0 0 0 9.312 55.152 60.736 60.736 0 0 0-4.32 58.416c11.872 26.992 41.552 48.16 99.152 70.976 35.712 14.208 68.528 23.28 68.768 23.392a515.792 515.792 0 0 0 127.184 18.624c68.192 0 116.944-20.96 144.976-62.144 45.152-66.208 38.752-126.832-19.776-185.248-32.224-32.352-53.76-79.936-58.176-90.4-9.072-30.96-33.056-65.408-72.736-65.408a66.336 66.336 0 0 0-53.52 28.64c-11.632-14.672-23.04-26.192-33.28-32.832a86.112 86.112 0 0 0-46.192-14.768z m0 46.544c5.92 0 13.264 2.56 21.168 7.552 24.912 15.84 72.736 98.096 90.304 130.096 5.824 10.72 15.936 15.248 24.896 15.248 18.048 0 32-17.808 1.76-40.48-45.632-34.112-29.68-89.84-7.92-93.216 0.928-0.24 1.968-0.24 2.784-0.24 19.792 0 28.512 34.096 28.512 34.096s25.6 64.24 69.6 108.224c43.856 43.856 46.176 79.12 14.176 126.016-21.872 32-63.648 41.648-106.576 41.648-44.336 0-89.952-10.464-115.44-16.976-1.28-0.352-156.496-44.224-136.832-81.456 3.248-6.288 8.72-8.848 15.584-8.848 27.696 0 77.968 41.2 99.728 41.2 4.768 0 8.144-1.984 9.648-6.992 9.2-33.152-140.32-47.12-127.76-95.056 2.336-8.496 8.272-11.872 16.752-11.872 36.544 0 118.688 64.352 135.92 64.352 1.28 0 2.32-0.352 2.784-1.168 8.624-13.968 3.84-23.744-57.008-60.512-60.64-36.768-103.328-58.88-79.136-85.28 2.8-3.04 6.752-4.432 11.648-4.432 36.88 0 124.032 79.36 124.032 79.36s23.52 24.432 37.824 24.432a8.432 8.432 0 0 0 7.92-4.416c10-16.992-93.792-95.664-99.616-128.128-3.952-22.096 2.8-33.152 15.248-33.152z" fill="#FF9D0B" p-id="8617"></path><path d="M408.896 889.472c32-47.008 29.68-82.272-14.192-126.144-43.984-43.856-69.584-108.208-69.584-108.208s-9.536-37.232-31.296-33.76c-21.76 3.504-37.712 59.12 7.904 93.216 45.504 34.096-9.072 57.248-26.64 25.248-17.456-32-65.392-114.256-90.304-130.08-24.784-15.712-42.24-6.992-36.416 25.6 5.824 32.448 109.728 111.12 99.6 128-10.112 17.088-45.728-19.904-45.728-19.904S90.88 642.08 66.56 668.48c-24.192 26.416 18.512 48.528 79.136 85.296 60.848 36.768 65.616 46.544 57.008 60.512-8.72 13.968-142.88-99.264-155.456-51.2-12.56 47.824 136.96 61.664 127.776 94.832-9.312 33.168-105.44-62.608-124.976-25.376-19.792 37.36 135.552 81.232 136.832 81.584 50.032 13.024 177.456 40.608 222.016-24.672z" fill="#FFD21E" p-id="8618"></path><path d="M860.384 555.632c18.848 0 35.728 7.68 47.36 21.76 10.032 12.368 15.488 27.824 15.472 43.744 7.36-2.208 15.008-3.392 22.704-3.488 18.032 0 34.32 6.88 45.84 19.312a67.472 67.472 0 0 1 9.312 81.456 61.664 61.664 0 0 1 20.704 32.816c2.8 10.464 5.6 32.576-9.312 55.152a60.736 60.736 0 0 1 4.32 58.416c-11.872 26.992-41.552 48.16-99.04 70.976-35.84 14.208-68.64 23.28-68.88 23.392a515.792 515.792 0 0 1-127.184 18.624c-68.176 0-116.944-20.96-144.976-62.144-45.152-66.208-38.752-126.832 19.776-185.248 32.352-32.352 53.872-79.936 58.288-90.4 9.088-30.96 32.944-65.408 72.624-65.408a66.336 66.336 0 0 1 53.52 28.64c11.632-14.672 23.04-26.192 33.392-32.832a86.112 86.112 0 0 1 46.08-14.768z m0 46.544c-5.92 0-13.152 2.56-21.184 7.552-24.784 15.84-72.72 98.096-90.288 130.096a28.272 28.272 0 0 1-24.896 15.248c-17.92 0-32-17.808-1.632-40.48 45.488-34.112 29.552-89.84 7.792-93.216a17.952 17.952 0 0 0-2.784-0.24c-19.792 0-28.512 34.096-28.512 34.096s-25.6 64.24-69.472 108.224c-43.984 43.856-46.32 79.12-14.192 126.016 21.76 32 63.648 41.648 106.464 41.648 44.448 0 89.952-10.464 115.552-16.976 1.168-0.352 156.512-44.224 136.848-81.456-3.376-6.288-8.736-8.848-15.6-8.848-27.68 0-78.08 41.2-99.728 41.2-4.88 0-8.256-1.984-9.648-6.992-9.312-33.152 140.208-47.12 127.648-95.056-2.208-8.496-8.16-11.872-16.752-11.872-36.544 0-118.704 64.352-135.92 64.352-1.168 0-2.208-0.352-2.672-1.168-8.608-13.968-3.952-23.744 56.784-60.512 60.848-36.768 103.552-58.88 79.12-85.28-2.672-3.04-6.624-4.432-11.392-4.432-37.008 0-124.16 79.36-124.16 79.36s-23.52 24.432-37.712 24.432a8.64 8.64 0 0 1-7.904-4.416c-10.128-16.992 93.664-95.664 99.488-128.128 3.952-22.096-2.8-33.152-15.248-33.152z" fill="#FF9D0B" p-id="8619"></path><path d="M615.2 889.472c-32-47.008-29.76-82.272 14.208-126.144 43.872-43.856 69.472-108.208 69.472-108.208s9.536-37.232 31.424-33.76c21.632 3.504 37.584 59.12-7.92 93.216-45.6 34.096 9.072 57.248 26.528 25.248 17.568-32 65.52-114.256 90.304-130.08 24.784-15.712 42.352-6.992 36.416 25.6-5.824 32.448-109.6 111.12-99.488 128 10 17.088 45.6-19.904 45.6-19.904s111.488-101.36 135.68-74.944c24.208 26.416-18.368 48.528-79.12 85.296-60.848 36.768-65.504 46.544-57.008 60.512 8.72 13.968 142.88-99.264 155.456-51.2 12.56 47.824-136.848 61.664-127.648 94.832 9.312 33.168 105.296-62.608 124.96-25.376 19.68 37.36-135.552 81.232-136.832 81.584-50.144 13.024-177.568 40.608-222.016-24.672z" fill="#FFD21E" p-id="8620"></path></svg>