<?xml version="1.0" standalone="no"?><!DOCTYPE svg PUBLIC "-//W3C//DTD SVG 1.1//EN" "http://www.w3.org/Graphics/SVG/1.1/DTD/svg11.dtd"><svg t="1738250211926" class="icon" viewBox="0 0 1024 1024" version="1.1" xmlns="http://www.w3.org/2000/svg" p-id="6475" width="20" height="20" xmlns:xlink="http://www.w3.org/1999/xlink"><path d="M803.214 1017.984c-0.928 3.936-4.992 6.016-12 6.016h-133.92c-7.968 0-14.976-3.488-20.992-10.592l-220.928-281.12-61.792 58.624v218.08q0 15.024-14.976 15.008H234.894q-15.12 0-15.1-15.008V15.072C219.79 5.12 224.814 0 234.894 0h103.712c9.984 0 14.976 5.12 14.976 15.072V627.04l264.672-267.616c7.04-7.04 14.08-10.5 21.12-10.5h138.208c6.144 0 10.08 2.56 12.16 7.68 1.952 6.368 1.44 10.88-1.536 13.44L508.522 640.736l291.68 362.976c4.064 4.448 4.992 8.864 2.976 15.264z" fill="#20BEFF" p-id="6476"></path></svg>